<?xml version="1.0" encoding="utf-8"?><svg xmlns="http://www.w3.org/2000/svg" version="1.1" xmlns:xlink="http://www.w3.org/1999/xlink" viewBox="0 0 315 315"><rect width="315" height="315" fill="#FFFFFF"></rect><path shape-rendering="geometricPrecision" d="M 9 9 v 63 h 63 v -63 h -63 z M 18 18 v 45 h 45 v -45 h -45 z M 306 9 v 63 h -63 v -63 h 63 z M 297 18 v 45 h -45 v -45 h 45 z M 9 306 v -63 h 63 v 63 h -63 z M 18 297 v -45 h 45 v 45 h -45 z" fill-rule="evenodd" fill="#000000"/><path shape-rendering="geometricPrecision" d="M 27 27 v 27 h 27 v -27 h -27 z M 288 27 v 27 h -27 v -27 h 27 z M 27 288 v -27 h 27 v 27 h -27 z" fill="#000000"/><path shape-rendering="geometricPrecision" d="M 9 81 v 9 h 9 v -9 h -9 z M 9 108 v 9 h 9 v -9 h -9 z M 9 126 v 9 h 9 v -9 h -9 z M 9 135 v 9 h 9 v -9 h -9 z M 9 162 v 9 h 9 v -9 h -9 z M 9 171 v 9 h 9 v -9 h -9 z M 9 198 v 9 h 9 v -9 h -9 z M 18 81 v 9 h 9 v -9 h -9 z M 18 108 v 9 h 9 v -9 h -9 z M 18 117 v 9 h 9 v -9 h -9 z M 18 126 v 9 h 9 v -9 h -9 z M 18 135 v 9 h 9 v -9 h -9 z M 18 153 v 9 h 9 v -9 h -9 z M 18 171 v 9 h 9 v -9 h -9 z M 18 180 v 9 h 9 v -9 h -9 z M 18 189 v 9 h 9 v -9 h -9 z M 18 207 v 9 h 9 v -9 h -9 z M 18 225 v 9 h 9 v -9 h -9 z M 27 81 v 9 h 9 v -9 h -9 z M 27 90 v 9 h 9 v -9 h -9 z M 27 117 v 9 h 9 v -9 h -9 z M 27 126 v 9 h 9 v -9 h -9 z M 27 135 v 9 h 9 v -9 h -9 z M 27 144 v 9 h 9 v -9 h -9 z M 27 153 v 9 h 9 v -9 h -9 z M 27 180 v 9 h 9 v -9 h -9 z M 27 189 v 9 h 9 v -9 h -9 z M 27 198 v 9 h 9 v -9 h -9 z M 27 207 v 9 h 9 v -9 h -9 z M 27 216 v 9 h 9 v -9 h -9 z M 36 90 v 9 h 9 v -9 h -9 z M 36 108 v 9 h 9 v -9 h -9 z M 36 135 v 9 h 9 v -9 h -9 z M 36 144 v 9 h 9 v -9 h -9 z M 36 153 v 9 h 9 v -9 h -9 z M 36 171 v 9 h 9 v -9 h -9 z M 36 189 v 9 h 9 v -9 h -9 z M 36 198 v 9 h 9 v -9 h -9 z M 36 216 v 9 h 9 v -9 h -9 z M 45 81 v 9 h 9 v -9 h -9 z M 45 90 v 9 h 9 v -9 h -9 z M 45 99 v 9 h 9 v -9 h -9 z M 45 117 v 9 h 9 v -9 h -9 z M 45 126 v 9 h 9 v -9 h -9 z M 45 144 v 9 h 9 v -9 h -9 z M 45 153 v 9 h 9 v -9 h -9 z M 45 198 v 9 h 9 v -9 h -9 z M 54 90 v 9 h 9 v -9 h -9 z M 54 126 v 9 h 9 v -9 h -9 z M 54 135 v 9 h 9 v -9 h -9 z M 54 144 v 9 h 9 v -9 h -9 z M 54 153 v 9 h 9 v -9 h -9 z M 54 162 v 9 h 9 v -9 h -9 z M 54 171 v 9 h 9 v -9 h -9 z M 54 180 v 9 h 9 v -9 h -9 z M 54 216 v 9 h 9 v -9 h -9 z M 54 225 v 9 h 9 v -9 h -9 z M 63 81 v 9 h 9 v -9 h -9 z M 63 99 v 9 h 9 v -9 h -9 z M 63 117 v 9 h 9 v -9 h -9 z M 63 135 v 9 h 9 v -9 h -9 z M 63 153 v 9 h 9 v -9 h -9 z M 63 171 v 9 h 9 v -9 h -9 z M 63 189 v 9 h 9 v -9 h -9 z M 63 207 v 9 h 9 v -9 h -9 z M 63 225 v 9 h 9 v -9 h -9 z M 72 108 v 9 h 9 v -9 h -9 z M 72 117 v 9 h 9 v -9 h -9 z M 72 126 v 9 h 9 v -9 h -9 z M 72 135 v 9 h 9 v -9 h -9 z M 72 144 v 9 h 9 v -9 h -9 z M 72 153 v 9 h 9 v -9 h -9 z M 72 171 v 9 h 9 v -9 h -9 z M 72 225 v 9 h 9 v -9 h -9 z M 81 9 v 9 h 9 v -9 h -9 z M 81 36 v 9 h 9 v -9 h -9 z M 81 45 v 9 h 9 v -9 h -9 z M 81 54 v 9 h 9 v -9 h -9 z M 81 63 v 9 h 9 v -9 h -9 z M 81 72 v 9 h 9 v -9 h -9 z M 81 81 v 9 h 9 v -9 h -9 z M 81 90 v 9 h 9 v -9 h -9 z M 81 135 v 9 h 9 v -9 h -9 z M 81 153 v 9 h 9 v -9 h -9 z M 81 162 v 9 h 9 v -9 h -9 z M 81 189 v 9 h 9 v -9 h -9 z M 81 216 v 9 h 9 v -9 h -9 z M 81 225 v 9 h 9 v -9 h -9 z M 81 234 v 9 h 9 v -9 h -9 z M 81 261 v 9 h 9 v -9 h -9 z M 81 279 v 9 h 9 v -9 h -9 z M 81 288 v 9 h 9 v -9 h -9 z M 81 297 v 9 h 9 v -9 h -9 z M 90 9 v 9 h 9 v -9 h -9 z M 90 18 v 9 h 9 v -9 h -9 z M 90 27 v 9 h 9 v -9 h -9 z M 90 54 v 9 h 9 v -9 h -9 z M 90 126 v 9 h 9 v -9 h -9 z M 90 144 v 9 h 9 v -9 h -9 z M 90 162 v 9 h 9 v -9 h -9 z M 90 180 v 9 h 9 v -9 h -9 z M 90 198 v 9 h 9 v -9 h -9 z M 90 207 v 9 h 9 v -9 h -9 z M 90 216 v 9 h 9 v -9 h -9 z M 90 261 v 9 h 9 v -9 h -9 z M 90 270 v 9 h 9 v -9 h -9 z M 90 279 v 9 h 9 v -9 h -9 z M 99 9 v 9 h 9 v -9 h -9 z M 99 18 v 9 h 9 v -9 h -9 z M 99 45 v 9 h 9 v -9 h -9 z M 99 54 v 9 h 9 v -9 h -9 z M 99 63 v 9 h 9 v -9 h -9 z M 99 72 v 9 h 9 v -9 h -9 z M 99 99 v 9 h 9 v -9 h -9 z M 99 117 v 9 h 9 v -9 h -9 z M 99 126 v 9 h 9 v -9 h -9 z M 99 144 v 9 h 9 v -9 h -9 z M 99 153 v 9 h 9 v -9 h -9 z M 99 198 v 9 h 9 v -9 h -9 z M 99 207 v 9 h 9 v -9 h -9 z M 99 216 v 9 h 9 v -9 h -9 z M 99 234 v 9 h 9 v -9 h -9 z M 99 261 v 9 h 9 v -9 h -9 z M 99 270 v 9 h 9 v -9 h -9 z M 99 279 v 9 h 9 v -9 h -9 z M 99 288 v 9 h 9 v -9 h -9 z M 99 297 v 9 h 9 v -9 h -9 z M 108 9 v 9 h 9 v -9 h -9 z M 108 18 v 9 h 9 v -9 h -9 z M 108 27 v 9 h 9 v -9 h -9 z M 108 36 v 9 h 9 v -9 h -9 z M 108 45 v 9 h 9 v -9 h -9 z M 108 54 v 9 h 9 v -9 h -9 z M 108 72 v 9 h 9 v -9 h -9 z M 108 81 v 9 h 9 v -9 h -9 z M 108 108 v 9 h 9 v -9 h -9 z M 108 126 v 9 h 9 v -9 h -9 z M 108 144 v 9 h 9 v -9 h -9 z M 108 171 v 9 h 9 v -9 h -9 z M 108 216 v 9 h 9 v -9 h -9 z M 108 225 v 9 h 9 v -9 h -9 z M 108 243 v 9 h 9 v -9 h -9 z M 108 252 v 9 h 9 v -9 h -9 z M 108 279 v 9 h 9 v -9 h -9 z M 108 288 v 9 h 9 v -9 h -9 z M 108 297 v 9 h 9 v -9 h -9 z M 117 27 v 9 h 9 v -9 h -9 z M 117 36 v 9 h 9 v -9 h -9 z M 117 63 v 9 h 9 v -9 h -9 z M 117 90 v 9 h 9 v -9 h -9 z M 117 108 v 9 h 9 v -9 h -9 z M 117 126 v 9 h 9 v -9 h -9 z M 117 162 v 9 h 9 v -9 h -9 z M 117 225 v 9 h 9 v -9 h -9 z M 117 243 v 9 h 9 v -9 h -9 z M 117 252 v 9 h 9 v -9 h -9 z M 126 18 v 9 h 9 v -9 h -9 z M 126 45 v 9 h 9 v -9 h -9 z M 126 54 v 9 h 9 v -9 h -9 z M 126 72 v 9 h 9 v -9 h -9 z M 126 99 v 9 h 9 v -9 h -9 z M 126 108 v 9 h 9 v -9 h -9 z M 126 126 v 9 h 9 v -9 h -9 z M 126 135 v 9 h 9 v -9 h -9 z M 126 171 v 9 h 9 v -9 h -9 z M 126 180 v 9 h 9 v -9 h -9 z M 126 189 v 9 h 9 v -9 h -9 z M 126 198 v 9 h 9 v -9 h -9 z M 126 216 v 9 h 9 v -9 h -9 z M 126 252 v 9 h 9 v -9 h -9 z M 126 270 v 9 h 9 v -9 h -9 z M 126 279 v 9 h 9 v -9 h -9 z M 135 9 v 9 h 9 v -9 h -9 z M 135 18 v 9 h 9 v -9 h -9 z M 135 27 v 9 h 9 v -9 h -9 z M 135 36 v 9 h 9 v -9 h -9 z M 135 54 v 9 h 9 v -9 h -9 z M 135 63 v 9 h 9 v -9 h -9 z M 135 72 v 9 h 9 v -9 h -9 z M 135 81 v 9 h 9 v -9 h -9 z M 135 108 v 9 h 9 v -9 h -9 z M 135 144 v 9 h 9 v -9 h -9 z M 135 180 v 9 h 9 v -9 h -9 z M 135 189 v 9 h 9 v -9 h -9 z M 135 225 v 9 h 9 v -9 h -9 z M 135 243 v 9 h 9 v -9 h -9 z M 135 261 v 9 h 9 v -9 h -9 z M 144 9 v 9 h 9 v -9 h -9 z M 144 18 v 9 h 9 v -9 h -9 z M 144 45 v 9 h 9 v -9 h -9 z M 144 90 v 9 h 9 v -9 h -9 z M 144 117 v 9 h 9 v -9 h -9 z M 144 135 v 9 h 9 v -9 h -9 z M 144 153 v 9 h 9 v -9 h -9 z M 144 189 v 9 h 9 v -9 h -9 z M 144 216 v 9 h 9 v -9 h -9 z M 144 234 v 9 h 9 v -9 h -9 z M 144 270 v 9 h 9 v -9 h -9 z M 144 279 v 9 h 9 v -9 h -9 z M 144 297 v 9 h 9 v -9 h -9 z M 153 9 v 9 h 9 v -9 h -9 z M 153 18 v 9 h 9 v -9 h -9 z M 153 36 v 9 h 9 v -9 h -9 z M 153 45 v 9 h 9 v -9 h -9 z M 153 63 v 9 h 9 v -9 h -9 z M 153 108 v 9 h 9 v -9 h -9 z M 153 126 v 9 h 9 v -9 h -9 z M 153 144 v 9 h 9 v -9 h -9 z M 153 189 v 9 h 9 v -9 h -9 z M 153 207 v 9 h 9 v -9 h -9 z M 153 225 v 9 h 9 v -9 h -9 z M 153 234 v 9 h 9 v -9 h -9 z M 153 243 v 9 h 9 v -9 h -9 z M 153 252 v 9 h 9 v -9 h -9 z M 153 261 v 9 h 9 v -9 h -9 z M 153 270 v 9 h 9 v -9 h -9 z M 162 18 v 9 h 9 v -9 h -9 z M 162 27 v 9 h 9 v -9 h -9 z M 162 72 v 9 h 9 v -9 h -9 z M 162 81 v 9 h 9 v -9 h -9 z M 162 99 v 9 h 9 v -9 h -9 z M 162 117 v 9 h 9 v -9 h -9 z M 162 135 v 9 h 9 v -9 h -9 z M 162 144 v 9 h 9 v -9 h -9 z M 162 153 v 9 h 9 v -9 h -9 z M 162 162 v 9 h 9 v -9 h -9 z M 162 171 v 9 h 9 v -9 h -9 z M 162 180 v 9 h 9 v -9 h -9 z M 162 189 v 9 h 9 v -9 h -9 z M 162 198 v 9 h 9 v -9 h -9 z M 162 207 v 9 h 9 v -9 h -9 z M 162 243 v 9 h 9 v -9 h -9 z M 162 261 v 9 h 9 v -9 h -9 z M 162 279 v 9 h 9 v -9 h -9 z M 162 297 v 9 h 9 v -9 h -9 z M 171 9 v 9 h 9 v -9 h -9 z M 171 36 v 9 h 9 v -9 h -9 z M 171 45 v 9 h 9 v -9 h -9 z M 171 63 v 9 h 9 v -9 h -9 z M 171 90 v 9 h 9 v -9 h -9 z M 171 117 v 9 h 9 v -9 h -9 z M 171 126 v 9 h 9 v -9 h -9 z M 171 135 v 9 h 9 v -9 h -9 z M 171 144 v 9 h 9 v -9 h -9 z M 171 162 v 9 h 9 v -9 h -9 z M 171 171 v 9 h 9 v -9 h -9 z M 171 180 v 9 h 9 v -9 h -9 z M 171 198 v 9 h 9 v -9 h -9 z M 171 216 v 9 h 9 v -9 h -9 z M 171 225 v 9 h 9 v -9 h -9 z M 171 243 v 9 h 9 v -9 h -9 z M 171 252 v 9 h 9 v -9 h -9 z M 171 270 v 9 h 9 v -9 h -9 z M 171 279 v 9 h 9 v -9 h -9 z M 171 297 v 9 h 9 v -9 h -9 z M 180 9 v 9 h 9 v -9 h -9 z M 180 36 v 9 h 9 v -9 h -9 z M 180 45 v 9 h 9 v -9 h -9 z M 180 54 v 9 h 9 v -9 h -9 z M 180 72 v 9 h 9 v -9 h -9 z M 180 90 v 9 h 9 v -9 h -9 z M 180 126 v 9 h 9 v -9 h -9 z M 180 135 v 9 h 9 v -9 h -9 z M 180 144 v 9 h 9 v -9 h -9 z M 180 153 v 9 h 9 v -9 h -9 z M 180 225 v 9 h 9 v -9 h -9 z M 180 234 v 9 h 9 v -9 h -9 z M 180 243 v 9 h 9 v -9 h -9 z M 180 261 v 9 h 9 v -9 h -9 z M 180 270 v 9 h 9 v -9 h -9 z M 180 279 v 9 h 9 v -9 h -9 z M 180 288 v 9 h 9 v -9 h -9 z M 189 9 v 9 h 9 v -9 h -9 z M 189 18 v 9 h 9 v -9 h -9 z M 189 45 v 9 h 9 v -9 h -9 z M 189 63 v 9 h 9 v -9 h -9 z M 189 90 v 9 h 9 v -9 h -9 z M 189 99 v 9 h 9 v -9 h -9 z M 189 108 v 9 h 9 v -9 h -9 z M 189 117 v 9 h 9 v -9 h -9 z M 189 126 v 9 h 9 v -9 h -9 z M 189 153 v 9 h 9 v -9 h -9 z M 189 171 v 9 h 9 v -9 h -9 z M 189 180 v 9 h 9 v -9 h -9 z M 189 198 v 9 h 9 v -9 h -9 z M 189 207 v 9 h 9 v -9 h -9 z M 189 225 v 9 h 9 v -9 h -9 z M 189 252 v 9 h 9 v -9 h -9 z M 189 270 v 9 h 9 v -9 h -9 z M 189 288 v 9 h 9 v -9 h -9 z M 198 9 v 9 h 9 v -9 h -9 z M 198 18 v 9 h 9 v -9 h -9 z M 198 45 v 9 h 9 v -9 h -9 z M 198 90 v 9 h 9 v -9 h -9 z M 198 207 v 9 h 9 v -9 h -9 z M 198 216 v 9 h 9 v -9 h -9 z M 198 225 v 9 h 9 v -9 h -9 z M 198 234 v 9 h 9 v -9 h -9 z M 198 252 v 9 h 9 v -9 h -9 z M 198 261 v 9 h 9 v -9 h -9 z M 207 9 v 9 h 9 v -9 h -9 z M 207 27 v 9 h 9 v -9 h -9 z M 207 36 v 9 h 9 v -9 h -9 z M 207 45 v 9 h 9 v -9 h -9 z M 207 63 v 9 h 9 v -9 h -9 z M 207 90 v 9 h 9 v -9 h -9 z M 207 99 v 9 h 9 v -9 h -9 z M 207 117 v 9 h 9 v -9 h -9 z M 207 171 v 9 h 9 v -9 h -9 z M 207 180 v 9 h 9 v -9 h -9 z M 207 189 v 9 h 9 v -9 h -9 z M 207 207 v 9 h 9 v -9 h -9 z M 207 216 v 9 h 9 v -9 h -9 z M 207 261 v 9 h 9 v -9 h -9 z M 207 279 v 9 h 9 v -9 h -9 z M 207 288 v 9 h 9 v -9 h -9 z M 207 297 v 9 h 9 v -9 h -9 z M 216 9 v 9 h 9 v -9 h -9 z M 216 81 v 9 h 9 v -9 h -9 z M 216 90 v 9 h 9 v -9 h -9 z M 216 108 v 9 h 9 v -9 h -9 z M 216 117 v 9 h 9 v -9 h -9 z M 216 126 v 9 h 9 v -9 h -9 z M 216 135 v 9 h 9 v -9 h -9 z M 216 144 v 9 h 9 v -9 h -9 z M 216 162 v 9 h 9 v -9 h -9 z M 216 171 v 9 h 9 v -9 h -9 z M 216 180 v 9 h 9 v -9 h -9 z M 216 189 v 9 h 9 v -9 h -9 z M 216 243 v 9 h 9 v -9 h -9 z M 216 252 v 9 h 9 v -9 h -9 z M 216 279 v 9 h 9 v -9 h -9 z M 216 288 v 9 h 9 v -9 h -9 z M 216 297 v 9 h 9 v -9 h -9 z M 225 9 v 9 h 9 v -9 h -9 z M 225 18 v 9 h 9 v -9 h -9 z M 225 36 v 9 h 9 v -9 h -9 z M 225 45 v 9 h 9 v -9 h -9 z M 225 63 v 9 h 9 v -9 h -9 z M 225 72 v 9 h 9 v -9 h -9 z M 225 135 v 9 h 9 v -9 h -9 z M 225 153 v 9 h 9 v -9 h -9 z M 225 171 v 9 h 9 v -9 h -9 z M 225 189 v 9 h 9 v -9 h -9 z M 225 207 v 9 h 9 v -9 h -9 z M 225 225 v 9 h 9 v -9 h -9 z M 225 234 v 9 h 9 v -9 h -9 z M 225 243 v 9 h 9 v -9 h -9 z M 225 252 v 9 h 9 v -9 h -9 z M 225 261 v 9 h 9 v -9 h -9 z M 234 81 v 9 h 9 v -9 h -9 z M 234 90 v 9 h 9 v -9 h -9 z M 234 99 v 9 h 9 v -9 h -9 z M 234 117 v 9 h 9 v -9 h -9 z M 234 126 v 9 h 9 v -9 h -9 z M 234 144 v 9 h 9 v -9 h -9 z M 234 153 v 9 h 9 v -9 h -9 z M 234 162 v 9 h 9 v -9 h -9 z M 234 171 v 9 h 9 v -9 h -9 z M 234 198 v 9 h 9 v -9 h -9 z M 234 207 v 9 h 9 v -9 h -9 z M 234 216 v 9 h 9 v -9 h -9 z M 234 225 v 9 h 9 v -9 h -9 z M 234 261 v 9 h 9 v -9 h -9 z M 234 279 v 9 h 9 v -9 h -9 z M 243 81 v 9 h 9 v -9 h -9 z M 243 90 v 9 h 9 v -9 h -9 z M 243 126 v 9 h 9 v -9 h -9 z M 243 144 v 9 h 9 v -9 h -9 z M 243 162 v 9 h 9 v -9 h -9 z M 243 180 v 9 h 9 v -9 h -9 z M 243 216 v 9 h 9 v -9 h -9 z M 243 225 v 9 h 9 v -9 h -9 z M 243 243 v 9 h 9 v -9 h -9 z M 243 261 v 9 h 9 v -9 h -9 z M 243 279 v 9 h 9 v -9 h -9 z M 252 81 v 9 h 9 v -9 h -9 z M 252 90 v 9 h 9 v -9 h -9 z M 252 108 v 9 h 9 v -9 h -9 z M 252 135 v 9 h 9 v -9 h -9 z M 252 153 v 9 h 9 v -9 h -9 z M 252 162 v 9 h 9 v -9 h -9 z M 252 171 v 9 h 9 v -9 h -9 z M 252 180 v 9 h 9 v -9 h -9 z M 252 198 v 9 h 9 v -9 h -9 z M 252 207 v 9 h 9 v -9 h -9 z M 252 216 v 9 h 9 v -9 h -9 z M 252 225 v 9 h 9 v -9 h -9 z M 252 261 v 9 h 9 v -9 h -9 z M 252 270 v 9 h 9 v -9 h -9 z M 252 279 v 9 h 9 v -9 h -9 z M 252 297 v 9 h 9 v -9 h -9 z M 261 81 v 9 h 9 v -9 h -9 z M 261 90 v 9 h 9 v -9 h -9 z M 261 153 v 9 h 9 v -9 h -9 z M 261 162 v 9 h 9 v -9 h -9 z M 261 180 v 9 h 9 v -9 h -9 z M 261 198 v 9 h 9 v -9 h -9 z M 261 207 v 9 h 9 v -9 h -9 z M 261 216 v 9 h 9 v -9 h -9 z M 261 225 v 9 h 9 v -9 h -9 z M 261 234 v 9 h 9 v -9 h -9 z M 261 243 v 9 h 9 v -9 h -9 z M 261 252 v 9 h 9 v -9 h -9 z M 261 261 v 9 h 9 v -9 h -9 z M 261 288 v 9 h 9 v -9 h -9 z M 261 297 v 9 h 9 v -9 h -9 z M 270 81 v 9 h 9 v -9 h -9 z M 270 126 v 9 h 9 v -9 h -9 z M 270 153 v 9 h 9 v -9 h -9 z M 270 171 v 9 h 9 v -9 h -9 z M 270 207 v 9 h 9 v -9 h -9 z M 270 225 v 9 h 9 v -9 h -9 z M 270 234 v 9 h 9 v -9 h -9 z M 270 252 v 9 h 9 v -9 h -9 z M 270 270 v 9 h 9 v -9 h -9 z M 270 279 v 9 h 9 v -9 h -9 z M 270 297 v 9 h 9 v -9 h -9 z M 279 99 v 9 h 9 v -9 h -9 z M 279 117 v 9 h 9 v -9 h -9 z M 279 126 v 9 h 9 v -9 h -9 z M 279 135 v 9 h 9 v -9 h -9 z M 279 144 v 9 h 9 v -9 h -9 z M 279 180 v 9 h 9 v -9 h -9 z M 279 198 v 9 h 9 v -9 h -9 z M 279 207 v 9 h 9 v -9 h -9 z M 279 234 v 9 h 9 v -9 h -9 z M 279 252 v 9 h 9 v -9 h -9 z M 279 261 v 9 h 9 v -9 h -9 z M 279 288 v 9 h 9 v -9 h -9 z M 279 297 v 9 h 9 v -9 h -9 z M 288 99 v 9 h 9 v -9 h -9 z M 288 108 v 9 h 9 v -9 h -9 z M 288 135 v 9 h 9 v -9 h -9 z M 288 171 v 9 h 9 v -9 h -9 z M 288 180 v 9 h 9 v -9 h -9 z M 288 189 v 9 h 9 v -9 h -9 z M 288 207 v 9 h 9 v -9 h -9 z M 288 234 v 9 h 9 v -9 h -9 z M 288 243 v 9 h 9 v -9 h -9 z M 288 252 v 9 h 9 v -9 h -9 z M 288 261 v 9 h 9 v -9 h -9 z M 288 279 v 9 h 9 v -9 h -9 z M 288 288 v 9 h 9 v -9 h -9 z M 288 297 v 9 h 9 v -9 h -9 z M 297 81 v 9 h 9 v -9 h -9 z M 297 90 v 9 h 9 v -9 h -9 z M 297 126 v 9 h 9 v -9 h -9 z M 297 135 v 9 h 9 v -9 h -9 z M 297 144 v 9 h 9 v -9 h -9 z M 297 153 v 9 h 9 v -9 h -9 z M 297 162 v 9 h 9 v -9 h -9 z M 297 180 v 9 h 9 v -9 h -9 z M 297 207 v 9 h 9 v -9 h -9 z M 297 216 v 9 h 9 v -9 h -9 z M 297 225 v 9 h 9 v -9 h -9 z M 297 234 v 9 h 9 v -9 h -9 z M 297 243 v 9 h 9 v -9 h -9 z M 297 252 v 9 h 9 v -9 h -9 z M 297 261 v 9 h 9 v -9 h -9 z" fill="#000000"/></svg>