<?xml version="1.0" encoding="UTF-8" standalone="no"?>
<!-- Created with Inkscape (http://www.inkscape.org/) -->

<svg
   version="1.1"
   id="svg1"
   width="390.81641"
   height="471.79312"
   viewBox="0 0 390.8164 471.79312"
   xmlns="http://www.w3.org/2000/svg"
   xmlns:svg="http://www.w3.org/2000/svg">
  <defs
     id="defs1" />
  <g
     id="g1"
     transform="translate(-18.242188,-17.703125)">
    <path
       id="path1"
       d="M -17.00801,153.07243 H 254.32361"
       style="fill:none;stroke:#000000;stroke-width:0.79701;stroke-linecap:butt;stroke-linejoin:miter;stroke-miterlimit:10;stroke-dasharray:none;stroke-opacity:1"
       transform="matrix(1.3333333,0,0,-1.3333333,59.550667,398.78667)" />
    <path
       id="path2"
       d="M -2.55046,3.11095 C -2.0845,1.24435 -1.04614,0.36295 0,0 -1.04614,-0.36295 -2.0845,-1.24435 -2.55046,-3.11095"
       style="fill:none;stroke:#000000;stroke-width:0.79701;stroke-linecap:round;stroke-linejoin:round;stroke-miterlimit:10;stroke-dasharray:none;stroke-opacity:1"
       transform="matrix(1.3333333,0,0,-1.3333333,399.18013,194.69009)" />
    <path
       id="path3"
       d="m 2.0517578,-3.9843672 h 0.9375 c 0.1992188,0 0.3046875,0 0.3046875,-0.1992187 0,-0.1054688 -0.1054687,-0.1054688 -0.28125,-0.1054688 H 2.1337891 c 0.3632812,-1.4179687 0.4101562,-1.6171875 0.4101562,-1.6757812 0,-0.1757813 -0.1171875,-0.2695313 -0.2929687,-0.2695313 -0.023437,0 -0.3046875,0.011719 -0.3984375,0.3515625 l -0.3867188,1.59375 H 0.52832031 c -0.19921875,0 -0.29296875,0 -0.29296875,0.1875 0,0.1171875 0.0703125,0.1171875 0.26953125,0.1171875 H 1.3837891 c -0.71484379,2.8242188 -0.75000004,3.00000001 -0.75000004,3.17578126 0,0.5390625 0.37500004,0.9140625 0.91406254,0.9140625 1.0078125,0 1.5820312,-1.45312496 1.5820312,-1.53515626 0,-0.09375 -0.082031,-0.09375 -0.1171875,-0.09375 -0.09375,0 -0.1054687,0.023437 -0.1523437,0.140625 -0.4335938,1.03125001 -0.9609375,1.27734376 -1.3007813,1.27734376 -0.1992187,0 -0.3046875,-0.12890625 -0.3046875,-0.45703125 0,-0.24609375 0.023437,-0.31640625 0.058594,-0.48046871 z m 0,0"
       style="fill:#000000;fill-opacity:1;fill-rule:nonzero;stroke:none"
       aria-label="t"
       transform="matrix(1.3333333,0,0,1.3333333,404.66667,198.77733)" />
    <path
       id="path4"
       d="M 0,136.06442 V 271.33171"
       style="fill:none;stroke:#000000;stroke-width:0.79701;stroke-linecap:butt;stroke-linejoin:miter;stroke-miterlimit:10;stroke-dasharray:none;stroke-opacity:1"
       transform="matrix(1.3333333,0,0,-1.3333333,59.550667,398.78667)" />
    <path
       id="path5"
       d="M -2.55046,3.11095 C -2.0845,1.24435 -1.04614,0.36295 0,0 -1.04614,-0.36295 -2.0845,-1.24435 -2.55046,-3.11095"
       style="fill:none;stroke:#000000;stroke-width:0.79701;stroke-linecap:round;stroke-linejoin:round;stroke-miterlimit:10;stroke-dasharray:none;stroke-opacity:1"
       transform="matrix(0,-1.3333333,-1.3333333,0,59.550667,36.479707)" />
    <g
       id="g5"
       aria-label="v(t)"
       transform="matrix(1.3333333,0,0,1.3333333,48.529333,27.673333)">
      <path
         id="path6"
         d="m 4.6655,-3.7042188 c 0,-0.5390625 -0.2578125,-0.703125 -0.4453125,-0.703125 -0.2460938,0 -0.4804688,0.2578125 -0.4804688,0.4804688 0,0.1289062 0.046875,0.1875 0.1523438,0.3046875 0.2109375,0.1992187 0.3398437,0.4570312 0.3398437,0.8085937 0,0.421875 -0.609375,2.7070313 -1.7695312,2.7070313 -0.5039063,0 -0.7382813,-0.3515625 -0.7382813,-0.8671875 0,-0.5625 0.2695313,-1.2890625 0.5742188,-2.1210938 0.070312,-0.1640625 0.1289062,-0.3046875 0.1289062,-0.4921875 0,-0.4453125 -0.328125,-0.8203125 -0.8203125,-0.8203125 -0.93749995,0 -1.31249995,1.453125 -1.31249995,1.5351563 0,0.1054687 0.09375,0.1054687 0.1171875,0.1054687 0.09375,0 0.10546875,-0.023437 0.15234375,-0.1875 C 0.85690625,-3.9503125 1.2905,-4.1846875 1.57175,-4.1846875 c 0.082031,0 0.2578125,0 0.2578125,0.3164062 0,0.2460938 -0.1054688,0.515625 -0.1757813,0.703125 -0.4335937,1.1484375 -0.5625,1.6054688 -0.5625,2.0390625 0,1.07812505 0.8671875,1.2304688 1.3359375,1.2304688 1.6640625,0 2.2382813,-3.2929688 2.2382813,-3.8085938 z m 0,0"
         style="fill:#000000;fill-opacity:1;fill-rule:nonzero;stroke:none" />
      <path
         id="path7"
         d="m 8.4799531,2.3895312 c 0,-0.035156 0,-0.046875 -0.1640625,-0.2226562 -1.2421875,-1.25390625 -1.5703125,-3.12890625 -1.5703125,-4.6640625 0,-1.7226563 0.3867188,-3.4570313 1.6054688,-4.7109375 0.1289062,-0.1171875 0.1289062,-0.1289063 0.1289062,-0.1640625 0,-0.070312 -0.035156,-0.1054688 -0.09375,-0.1054688 -0.1054687,0 -0.9960937,0.6796875 -1.5820312,1.9453125 -0.515625,1.1015625 -0.6328125,2.203125 -0.6328125,3.0351563 0,0.7851562 0.1171875,1.9921875 0.65625,3.1171875 0.5976562,1.21875 1.453125,1.875 1.5585937,1.875 0.058594,0 0.09375,-0.035156 0.09375,-0.1054688 z m 0,0"
         style="fill:#000000;fill-opacity:1;fill-rule:nonzero;stroke:none" />
      <path
         id="path8"
         d="m 11.110812,-3.9854688 h 0.9375 c 0.199219,0 0.304688,0 0.304688,-0.1992187 0,-0.1054688 -0.105469,-0.1054688 -0.28125,-0.1054688 H 11.192844 C 11.556125,-5.708125 11.603,-5.9073438 11.603,-5.9659375 c 0,-0.1757813 -0.117188,-0.2695313 -0.292969,-0.2695313 -0.02344,0 -0.304687,0.011719 -0.398437,0.3515625 l -0.386719,1.59375 h -0.9375 c -0.1992188,0 -0.2929688,0 -0.2929688,0.1875 0,0.1171875 0.070312,0.1171875 0.2695313,0.1171875 H 10.442844 C 9.728,-1.16125 9.6928437,-0.98546875 9.6928437,-0.8096875 c 0,0.5390625 0.3750003,0.9140625 0.9140623,0.9140625 1.007813,0 1.582031,-1.453125 1.582031,-1.5351563 0,-0.09375 -0.08203,-0.09375 -0.117187,-0.09375 -0.09375,0 -0.105469,0.023437 -0.152344,0.140625 -0.433594,1.03125005 -0.960937,1.2773438 -1.300781,1.2773438 -0.199219,0 -0.304688,-0.12890625 -0.304688,-0.45703125 0,-0.24609375 0.02344,-0.31640625 0.05859,-0.48046875 z m 0,0"
         style="fill:#000000;fill-opacity:1;fill-rule:nonzero;stroke:none" />
      <path
         id="path9"
         d="m 15.5405,-2.4971875 c 0,-0.7734375 -0.117188,-1.9804688 -0.65625,-3.1054688 -0.597656,-1.21875 -1.464844,-1.875 -1.558594,-1.875 -0.05859,0 -0.105469,0.046875 -0.105469,0.1054688 0,0.035156 0,0.046875 0.199219,0.234375 0.972656,0.984375 1.535156,2.5664062 1.535156,4.640625 0,1.7109375 -0.363281,3.45703125 -1.59375,4.7226562 -0.140625,0.1171875 -0.140625,0.1289063 -0.140625,0.1640625 0,0.058594 0.04687,0.1054688 0.105469,0.1054688 0.09375,0 0.996094,-0.6796875 1.582031,-1.9453125 0.503907,-1.1015625 0.632813,-2.203125 0.632813,-3.046875 z m 0,0"
         style="fill:#000000;fill-opacity:1;fill-rule:nonzero;stroke:none" />
    </g>
    <path
       id="path10"
       d="m 0,153.07243 68.03217,85.04021 v -85.04021 z"
       style="fill:#cceffc;fill-opacity:1;fill-rule:nonzero;stroke:none"
       transform="matrix(1.3333333,0,0,-1.3333333,59.550667,398.78667)" />
    <path
       id="path11"
       d="m 68.03217,153.07243 v 85.04021 L 204.0965,153.07243 Z"
       style="fill:#ffe6cc;fill-opacity:1;fill-rule:nonzero;stroke:none"
       transform="matrix(1.3333333,0,0,-1.3333333,59.550667,398.78667)" />
    <path
       id="path12"
       d="m 0,153.07243 68.03217,85.04021"
       style="fill:none;stroke:#0000ff;stroke-width:1.19553;stroke-linecap:butt;stroke-linejoin:miter;stroke-miterlimit:10;stroke-dasharray:none;stroke-opacity:1"
       transform="matrix(1.3333333,0,0,-1.3333333,59.550667,398.78667)" />
    <path
       id="path13"
       d="M 68.03217,238.11264 204.0965,153.07243"
       style="fill:none;stroke:#ff6600;stroke-width:1.19553;stroke-linecap:butt;stroke-linejoin:miter;stroke-miterlimit:10;stroke-dasharray:none;stroke-opacity:1"
       transform="matrix(1.3333333,0,0,-1.3333333,59.550667,398.78667)" />
    <path
       id="path14"
       d="M 0,238.11264 H 68.03217"
       style="fill:none;stroke:#000000;stroke-width:0.79701;stroke-linecap:butt;stroke-linejoin:miter;stroke-miterlimit:10;stroke-dasharray:2.98883, 2.98883;stroke-dashoffset:0;stroke-opacity:1"
       transform="matrix(1.3333333,0,0,-1.3333333,59.550667,398.78667)" />
    <g
       id="g14"
       aria-label="v&#10;1"
       transform="matrix(1.3333333,0,0,1.3333333,42.46,83.170667)">
      <path
         id="path15"
         d="m 4.6647656,-3.7022187 c 0,-0.5390625 -0.2578125,-0.703125 -0.4453125,-0.703125 -0.2460937,0 -0.4804687,0.2578125 -0.4804687,0.4804687 0,0.1289063 0.046875,0.1875 0.1523437,0.3046875 0.2109375,0.1992188 0.3398438,0.4570313 0.3398438,0.8085938 0,0.421875 -0.609375,2.7070312 -1.7695313,2.7070312 -0.5039062,0 -0.7382812,-0.3515625 -0.7382812,-0.8671875 0,-0.5625 0.2695312,-1.2890625 0.5742187,-2.1210937 0.070312,-0.1640625 0.1289063,-0.3046875 0.1289063,-0.4921875 0,-0.4453125 -0.328125,-0.8203125 -0.8203125,-0.8203125 -0.93750003,0 -1.31250003,1.453125 -1.31250003,1.5351562 0,0.1054688 0.09375,0.1054688 0.1171875,0.1054688 0.09375,0 0.10546875,-0.023437 0.15234375,-0.1875 0.29296875,-0.9960938 0.72656248,-1.2304688 1.00781248,-1.2304688 0.082031,0 0.2578125,0 0.2578125,0.3164063 0,0.2460937 -0.1054687,0.515625 -0.1757812,0.703125 -0.4335938,1.1484375 -0.5625,1.6054687 -0.5625,2.0390625 0,1.07812495 0.8671875,1.2304687 1.3359375,1.2304687 1.6640625,0 2.2382812,-3.2929687 2.2382812,-3.8085937 z m 0,0"
         style="fill:#000000;fill-opacity:1;fill-rule:nonzero;stroke:none" />
      <path
         id="path16"
         d="m 7.1608594,-2.9346406 c 0,-0.1875 -0.011719,-0.1992188 -0.2109375,-0.1992188 -0.4453125,0.4335938 -1.078125,0.4453125 -1.359375,0.4453125 v 0.2460938 c 0.1640625,0 0.6210937,0 1.0078125,-0.1875 v 3.55078123 c 0,0.23437497 0,0.32812497 -0.6914063,0.32812497 H 5.6374219 v 0.2460938 c 0.1289062,-0.011719 0.984375,-0.023437 1.2421875,-0.023437 0.2109375,0 1.0898437,0.011719 1.2421875,0.023437 V 1.2489531 H 7.8639844 c -0.703125,0 -0.703125,-0.09375 -0.703125,-0.32812497 z m 0,0"
         style="fill:#000000;fill-opacity:1;fill-rule:nonzero;stroke:none" />
    </g>
    <g
       id="g16"
       aria-label="t&#10;1"
       transform="matrix(1.3333333,0,0,1.3333333,144.88133,207.556)">
      <path
         id="path17"
         d="m 2.0518906,-3.9853594 h 0.9375 c 0.1992188,0 0.3046875,0 0.3046875,-0.1992187 0,-0.1054688 -0.1054687,-0.1054688 -0.28125,-0.1054688 H 2.1339219 c 0.3632812,-1.4179687 0.4101562,-1.6171875 0.4101562,-1.6757812 0,-0.1757813 -0.1171875,-0.2695313 -0.2929687,-0.2695313 -0.023437,0 -0.3046875,0.011719 -0.3984375,0.3515625 l -0.3867188,1.59375 H 0.52845312 c -0.19921875,0 -0.29296875,0 -0.29296875,0.1875 0,0.1171875 0.0703125,0.1171875 0.26953125,0.1171875 H 1.3839219 c -0.71484378,2.8242188 -0.75000003,3.00000003 -0.75000003,3.17578128 0,0.5390625 0.37500003,0.9140625 0.91406253,0.9140625 1.0078125,0 1.5820312,-1.45312498 1.5820312,-1.53515628 0,-0.09375 -0.082031,-0.09375 -0.1171875,-0.09375 -0.09375,0 -0.1054687,0.023437 -0.1523437,0.140625 -0.4335938,1.03125003 -0.9609375,1.27734378 -1.3007813,1.27734378 -0.1992187,0 -0.3046875,-0.12890625 -0.3046875,-0.45703125 0,-0.24609375 0.023437,-0.31640625 0.058594,-0.48046873 z m 0,0"
         style="fill:#000000;fill-opacity:1;fill-rule:nonzero;stroke:none" />
      <path
         id="path18"
         d="m 5.9307969,-2.9365312 c 0,-0.1875 -0.011719,-0.1992188 -0.2109375,-0.1992188 -0.4453125,0.4335938 -1.078125,0.4453125 -1.359375,0.4453125 v 0.2460938 c 0.1640625,0 0.6210937,0 1.0078125,-0.1875 v 3.5507812 c 0,0.234375 0,0.328125 -0.6914063,0.328125 H 4.4073594 v 0.2460938 c 0.1289062,-0.011719 0.984375,-0.023437 1.2421875,-0.023437 0.2109375,0 1.0898437,0.011719 1.2421875,0.023437 V 1.2470625 H 6.6339219 c -0.703125,0 -0.703125,-0.09375 -0.703125,-0.328125 z m 0,0"
         style="fill:#000000;fill-opacity:1;fill-rule:nonzero;stroke:none" />
    </g>
    <g
       id="g18"
       aria-label="t&#10;2"
       transform="matrix(1.3333333,0,0,1.3333333,326.29867,207.556)">
      <path
         id="path19"
         d="m 2.0494375,-3.9853594 h 0.9375 c 0.1992187,0 0.3046875,0 0.3046875,-0.1992187 0,-0.1054688 -0.1054688,-0.1054688 -0.28125,-0.1054688 H 2.1314687 C 2.49475,-5.7080156 2.541625,-5.9072344 2.541625,-5.9658281 c 0,-0.1757813 -0.1171875,-0.2695313 -0.2929688,-0.2695313 -0.023437,0 -0.3046875,0.011719 -0.3984375,0.3515625 L 1.4635,-4.2900469 H 0.526 c -0.19921875,0 -0.29296875,0 -0.29296875,0.1875 0,0.1171875 0.0703125,0.1171875 0.26953125,0.1171875 h 0.8789062 c -0.7148437,2.8242188 -0.74999995,3.00000003 -0.74999995,3.17578128 0,0.5390625 0.37499995,0.9140625 0.91406245,0.9140625 1.0078125,0 1.5820313,-1.45312498 1.5820313,-1.53515628 0,-0.09375 -0.082031,-0.09375 -0.1171875,-0.09375 -0.09375,0 -0.1054688,0.023437 -0.1523438,0.140625 -0.4335937,1.03125003 -0.9609375,1.27734378 -1.3007812,1.27734378 -0.1992188,0 -0.3046875,-0.12890625 -0.3046875,-0.45703125 0,-0.24609375 0.023437,-0.31640625 0.058594,-0.48046873 z m 0,0"
         style="fill:#000000;fill-opacity:1;fill-rule:nonzero;stroke:none" />
      <path
         id="path20"
         d="M 7.1119375,0.22753125 H 6.8775625 C 6.854125,0.379875 6.7955312,0.79003125 6.7017812,0.86034375 6.6431875,0.8955 6.104125,0.8955 6.010375,0.8955 H 4.7213125 c 0.7382812,-0.64453125 0.984375,-0.84375 1.3945312,-1.171875 0.515625,-0.41015625 0.9960938,-0.84375 0.9960938,-1.5 0,-0.84375 -0.7382813,-1.359375 -1.6289063,-1.359375 -0.8671875,0 -1.453125,0.609375 -1.453125,1.2421875 0,0.3632813 0.3046875,0.3984375 0.375,0.3984375 0.1640625,0 0.375,-0.1171875 0.375,-0.375 0,-0.1289062 -0.058594,-0.3632812 -0.421875,-0.3632812 0.2226563,-0.5039063 0.6914063,-0.65625 1.0195313,-0.65625 0.703125,0 1.0664062,0.5507812 1.0664062,1.1132812 0,0.609375 -0.4335937,1.08984375 -0.65625,1.3359375 l -1.6875,1.6640625 c -0.070312,0.058594 -0.070312,0.070312 -0.070312,0.2695313 h 2.8828125 z m 0,0"
         style="fill:#000000;fill-opacity:1;fill-rule:nonzero;stroke:none" />
    </g>
    <g
       id="g20"
       aria-label="h&#10;1"
       transform="matrix(1.3333333,0,0,1.3333333,109.468,163.616)">
      <path
         id="path21"
         d="m 4.0318125,-9.5967656 c 0.011719,-0.058594 0.046875,-0.140625 0.046875,-0.2109375 0,-0.140625 -0.1523437,-0.140625 -0.1757812,-0.140625 -0.011719,0 -0.7148438,0.046875 -0.7851563,0.070312 -0.2460937,0.011719 -0.46875,0.035156 -0.7265625,0.058594 -0.3515625,0.023437 -0.4570312,0.035156 -0.4570312,0.2929688 0,0.1523437 0.1171875,0.1523437 0.3164062,0.1523437 0.703125,0 0.7148438,0.1289063 0.7148438,0.2695313 0,0.082031 -0.023437,0.1992187 -0.035156,0.2460937 l -2.0859375,8.29687503 c -0.0585938,0.22265625 -0.0585938,0.24609375 -0.0585938,0.328125 0,0.31640625 0.2460937,0.375 0.3867187,0.375 0.2460938,0 0.4335938,-0.1875 0.5039063,-0.33984375 L 2.320875,-2.7998906 c 0.070312,-0.3164063 0.1640625,-0.609375 0.234375,-0.9257813 0.1523438,-0.609375 0.1523438,-0.6210937 0.4335938,-1.03125 0.2695312,-0.421875 0.9140625,-1.2773437 2.015625,-1.2773437 0.5742187,0 0.7734375,0.421875 0.7734375,0.9960937 0,0.8085938 -0.5507813,2.3671875 -0.8671875,3.234375 -0.1289063,0.3398438 -0.2109375,0.5273438 -0.2109375,0.7851563 0,0.64453123 0.4453125,1.16015623 1.1367187,1.16015623 1.3359375,0 1.8398438,-2.10937503 1.8398438,-2.19140623 0,-0.070312 -0.058594,-0.1289063 -0.140625,-0.1289063 -0.1289063,0 -0.1523438,0.046875 -0.2226563,0.28125 -0.328125,1.14843753 -0.8554687,1.75781253 -1.4296875,1.75781253 -0.140625,0 -0.375,-0.0117188 -0.375,-0.48046875 0,-0.36328125 0.1757813,-0.83203128 0.234375,-0.98437498 0.2578125,-0.6914063 0.9023438,-2.3789063 0.9023438,-3.2109375 0,-0.8671875 -0.5039063,-1.5117188 -1.59375,-1.5117188 -0.8203125,0 -1.5351563,0.3867188 -2.1210938,1.1367188 z m 0,0"
         style="fill:#0000cc;fill-opacity:1;fill-rule:nonzero;stroke:none" />
      <path
         id="path22"
         d="m 11.016188,-4.2237187 c 0,-0.234375 0,-0.2578125 -0.234375,-0.2578125 -0.609375,0.6328125 -1.4882817,0.6328125 -1.804688,0.6328125 v 0.3164062 c 0.1992188,0 0.7851563,0 1.300781,-0.2578125 v 5.15625 c 0,0.3515625 -0.03516,0.4804688 -0.925781,0.4804688 H 9.0357188 V 2.1512813 C 9.3872813,2.116125 10.24275,2.116125 10.641188,2.116125 c 0.398437,0 1.265625,0 1.617187,0.035156 V 1.8465938 h -0.316406 c -0.902344,0 -0.925781,-0.1171875 -0.925781,-0.4804688 z m 0,0"
         style="fill:#0000cc;fill-opacity:1;fill-rule:nonzero;stroke:none" />
    </g>
    <g
       id="g22"
       aria-label="h&#10;2"
       transform="matrix(1.3333333,0,0,1.3333333,209.24667,163.616)">
      <path
         id="path23"
         d="m 4.0308203,-9.5967656 c 0.011719,-0.058594 0.046875,-0.140625 0.046875,-0.2109375 0,-0.140625 -0.1523437,-0.140625 -0.1757812,-0.140625 -0.011719,0 -0.7148438,0.046875 -0.7851563,0.070312 -0.2460937,0.011719 -0.46875,0.035156 -0.7265625,0.058594 -0.3515625,0.023437 -0.4570312,0.035156 -0.4570312,0.2929688 0,0.1523437 0.1171875,0.1523437 0.3164062,0.1523437 0.703125,0 0.7148438,0.1289063 0.7148438,0.2695313 0,0.082031 -0.023437,0.1992187 -0.035156,0.2460937 l -2.08593749,8.29687503 c -0.0585938,0.22265625 -0.0585938,0.24609375 -0.0585938,0.328125 0,0.31640625 0.24609369,0.375 0.38671869,0.375 0.2460938,0 0.4335938,-0.1875 0.5039064,-0.33984375 L 2.3198828,-2.7998906 c 0.070312,-0.3164063 0.1640625,-0.609375 0.234375,-0.9257813 0.1523438,-0.609375 0.1523438,-0.6210937 0.4335938,-1.03125 0.2695312,-0.421875 0.9140625,-1.2773437 2.015625,-1.2773437 0.5742187,0 0.7734375,0.421875 0.7734375,0.9960937 0,0.8085938 -0.5507813,2.3671875 -0.8671875,3.234375 -0.1289063,0.3398438 -0.2109375,0.5273438 -0.2109375,0.7851563 0,0.64453123 0.4453125,1.16015623 1.1367187,1.16015623 1.3359375,0 1.8398438,-2.10937503 1.8398438,-2.19140623 0,-0.070312 -0.058594,-0.1289063 -0.140625,-0.1289063 -0.1289063,0 -0.1523438,0.046875 -0.2226563,0.28125 -0.328125,1.14843753 -0.8554687,1.75781253 -1.4296875,1.75781253 -0.140625,0 -0.375,-0.0117188 -0.375,-0.48046875 0,-0.36328125 0.1757813,-0.83203128 0.234375,-0.98437498 0.2578125,-0.6914063 0.9023438,-2.3789063 0.9023438,-3.2109375 0,-0.8671875 -0.5039063,-1.5117188 -1.59375,-1.5117188 -0.8203125,0 -1.5351563,0.3867188 -2.1210938,1.1367188 z m 0,0"
         style="fill:#cc6600;fill-opacity:1;fill-rule:nonzero;stroke:none" />
      <path
         id="path24"
         d="m 9.3540625,1.3895625 1.0546875,-1.03125 c 1.558594,-1.3710937 2.15625,-1.9101562 2.15625,-2.90625 0,-1.1367187 -0.902344,-1.9335937 -2.121094,-1.9335937 -1.1249997,0 -1.8515622,0.9140625 -1.8515622,1.8046875 0,0.5507812 0.4921875,0.5507812 0.5273437,0.5507812 0.1640625,0 0.515625,-0.1171875 0.515625,-0.5273437 0,-0.2578125 -0.1875,-0.515625 -0.5273437,-0.515625 -0.082031,0 -0.1054688,0 -0.1289063,0.011719 0.2226563,-0.6445312 0.7617188,-1.0195312 1.3359375,-1.0195312 0.914063,0 1.335938,0.8085937 1.335938,1.6289062 0,0.796875 -0.492188,1.58203125 -1.042969,2.203125 L 8.6978125,1.788 C 8.5923438,1.8934688 8.5923438,1.9169063 8.5923438,2.1512813 H 12.28375 L 12.565,0.41690625 H 12.307188 C 12.260313,0.72159375 12.19,1.1551875 12.09625,1.3075313 c -0.07031,0.082031 -0.726562,0.082031 -0.949219,0.082031 z m 0,0"
         style="fill:#cc6600;fill-opacity:1;fill-rule:nonzero;stroke:none" />
    </g>
    <path
       id="path25"
       d="M -17.00801,0 H 254.32361"
       style="fill:none;stroke:#000000;stroke-width:0.79701;stroke-linecap:butt;stroke-linejoin:miter;stroke-miterlimit:10;stroke-dasharray:none;stroke-opacity:1"
       transform="matrix(1.3333333,0,0,-1.3333333,59.550667,398.78667)" />
    <path
       id="path26"
       d="M -2.55046,3.11095 C -2.0845,1.24435 -1.04614,0.36295 0,0 -1.04614,-0.36295 -2.0845,-1.24435 -2.55046,-3.11095"
       style="fill:none;stroke:#000000;stroke-width:0.79701;stroke-linecap:round;stroke-linejoin:round;stroke-miterlimit:10;stroke-dasharray:none;stroke-opacity:1"
       transform="matrix(1.3333333,0,0,-1.3333333,399.18013,398.78667)" />
    <path
       id="path27"
       d="m 2.0517578,-3.9850547 h 0.9375 c 0.1992188,0 0.3046875,0 0.3046875,-0.1992187 0,-0.1054688 -0.1054687,-0.1054688 -0.28125,-0.1054688 H 2.1337891 c 0.3632812,-1.4179687 0.4101562,-1.6171875 0.4101562,-1.6757812 0,-0.1757813 -0.1171875,-0.2695313 -0.2929687,-0.2695313 -0.023437,0 -0.3046875,0.011719 -0.3984375,0.3515625 l -0.3867188,1.59375 H 0.52832031 c -0.19921875,0 -0.29296875,0 -0.29296875,0.1875 0,0.1171875 0.0703125,0.1171875 0.26953125,0.1171875 H 1.3837891 c -0.71484379,2.8242188 -0.75000004,3.00000001 -0.75000004,3.17578126 0,0.5390625 0.37500004,0.9140625 0.91406254,0.9140625 1.0078125,0 1.5820312,-1.45312496 1.5820312,-1.53515626 0,-0.09375 -0.082031,-0.09375 -0.1171875,-0.09375 -0.09375,0 -0.1054687,0.023437 -0.1523437,0.140625 -0.4335938,1.03125001 -0.9609375,1.27734376 -1.3007813,1.27734376 -0.1992187,0 -0.3046875,-0.12890625 -0.3046875,-0.45703125 0,-0.24609375 0.023437,-0.31640625 0.058594,-0.48046871 z m 0,0"
       style="fill:#000000;fill-opacity:1;fill-rule:nonzero;stroke:none"
       aria-label="t"
       transform="matrix(1.3333333,0,0,1.3333333,404.66667,402.872)" />
    <path
       id="path28"
       d="M 0,-68.03217 V 84.24318"
       style="fill:none;stroke:#000000;stroke-width:0.79701;stroke-linecap:butt;stroke-linejoin:miter;stroke-miterlimit:10;stroke-dasharray:none;stroke-opacity:1"
       transform="matrix(1.3333333,0,0,-1.3333333,59.550667,398.78667)" />
    <path
       id="path29"
       d="M -2.55046,3.11095 C -2.0845,1.24435 -1.04614,0.36295 0,0 -1.04614,-0.36295 -2.0845,-1.24435 -2.55046,-3.11095"
       style="fill:none;stroke:#000000;stroke-width:0.79701;stroke-linecap:round;stroke-linejoin:round;stroke-miterlimit:10;stroke-dasharray:none;stroke-opacity:1"
       transform="matrix(0,-1.3333333,-1.3333333,0,59.550667,285.93107)" />
    <g
       id="g29"
       aria-label="a(t)"
       transform="matrix(1.3333333,0,0,1.3333333,48.476,277.12133)">
      <path
         id="path30"
         d="m 3.7152656,-3.7618984 c -0.1757812,-0.375 -0.46875,-0.6445313 -0.9140625,-0.6445313 -1.171875,0 -2.40234373,1.4648438 -2.40234373,2.9179688 0,0.93749996 0.55078125,1.59374996 1.32421873,1.59374996 0.1992188,0 0.703125,-0.03515625 1.3007813,-0.73828125 0.070312,0.41015625 0.421875,0.73828125 0.9023437,0.73828125 0.3515625,0 0.5742188,-0.22265625 0.7382813,-0.5390625 0.1640625,-0.36328125 0.2929687,-0.97265626 0.2929687,-0.99609376 0,-0.09375 -0.082031,-0.09375 -0.1171875,-0.09375 -0.09375,0 -0.1054687,0.035156 -0.140625,0.1757813 -0.1640625,0.64453121 -0.3515625,1.24218746 -0.75,1.24218746 -0.2695312,0 -0.3046875,-0.2578125 -0.3046875,-0.45703125 0,-0.22265625 0.023437,-0.3046875 0.1289063,-0.73828121 0.1171875,-0.421875 0.1289062,-0.5273438 0.2226562,-0.9023438 l 0.3515625,-1.3945312 c 0.070312,-0.28125 0.070312,-0.2929688 0.070312,-0.3398438 0,-0.1640625 -0.1171875,-0.2695312 -0.28125,-0.2695312 -0.2460937,0 -0.3867187,0.2226562 -0.4218745,0.4453125 z m -0.6445312,2.578125 c -0.046875,0.1757812 -0.046875,0.19921871 -0.1992188,0.36328121 -0.4453125,0.55078125 -0.84375,0.71484375 -1.125,0.71484375 -0.5039062,0 -0.6445312,-0.55078125 -0.6445312,-0.93749996 0,-0.5039063 0.328125,-1.7226563 0.5507812,-2.1796875 0.3046875,-0.5976563 0.7617188,-0.9609375 1.1601563,-0.9609375 0.6445312,0 0.7851562,0.8203125 0.7851562,0.8789062 0,0.058594 -0.023437,0.1171875 -0.035156,0.1640625 z m 0,0"
         style="fill:#000000;fill-opacity:1;fill-rule:nonzero;stroke:none" />
      <path
         id="path31"
         d="m 8.5580391,2.3904453 c 0,-0.035156 0,-0.046875 -0.1640625,-0.2226562 -1.2421875,-1.25390629 -1.5703125,-3.12890629 -1.5703125,-4.6640625 0,-1.7226563 0.3867187,-3.4570313 1.6054687,-4.7109375 0.1289063,-0.1171875 0.1289063,-0.1289063 0.1289063,-0.1640625 0,-0.070312 -0.035156,-0.1054688 -0.09375,-0.1054688 -0.1054688,0 -0.9960938,0.6796875 -1.5820313,1.9453125 -0.515625,1.1015625 -0.6328125,2.203125 -0.6328125,3.0351563 0,0.7851562 0.1171875,1.99218746 0.65625,3.11718746 0.5976563,1.21875004 1.453125,1.87500004 1.5585938,1.87500004 0.058594,0 0.09375,-0.035156 0.09375,-0.1054688 z m 0,0"
         style="fill:#000000;fill-opacity:1;fill-rule:nonzero;stroke:none" />
      <path
         id="path32"
         d="m 11.191828,-3.9845547 h 0.9375 c 0.199219,0 0.304688,0 0.304688,-0.1992187 0,-0.1054688 -0.105469,-0.1054688 -0.28125,-0.1054688 h -0.878907 c 0.363282,-1.4179687 0.410157,-1.6171875 0.410157,-1.6757812 0,-0.1757813 -0.117188,-0.2695313 -0.292969,-0.2695313 -0.02344,0 -0.304688,0.011719 -0.398438,0.3515625 l -0.386718,1.59375 H 9.6683906 c -0.1992187,0 -0.2929687,0 -0.2929687,0.1875 0,0.1171875 0.070312,0.1171875 0.2695312,0.1171875 h 0.8789059 c -0.7148434,2.8242188 -0.7499996,3.00000001 -0.7499996,3.17578126 0,0.5390625 0.3749996,0.9140625 0.9140626,0.9140625 1.007812,0 1.582031,-1.45312496 1.582031,-1.53515626 0,-0.09375 -0.08203,-0.09375 -0.117187,-0.09375 -0.09375,0 -0.105469,0.023437 -0.152344,0.140625 -0.433594,1.03125001 -0.960938,1.27734376 -1.300781,1.27734376 -0.199219,0 -0.304688,-0.12890625 -0.304688,-0.45703125 0,-0.24609375 0.02344,-0.31640625 0.05859,-0.48046871 z m 0,0"
         style="fill:#000000;fill-opacity:1;fill-rule:nonzero;stroke:none" />
      <path
         id="path33"
         d="m 15.621516,-2.4962734 c 0,-0.7734375 -0.117188,-1.9804688 -0.65625,-3.1054688 -0.597657,-1.21875 -1.464844,-1.875 -1.558594,-1.875 -0.05859,0 -0.105469,0.046875 -0.105469,0.1054688 0,0.035156 0,0.046875 0.199219,0.234375 0.972656,0.984375 1.535156,2.5664062 1.535156,4.640625 0,1.71093746 -0.363281,3.45703121 -1.59375,4.7226562 -0.140625,0.1171875 -0.140625,0.1289063 -0.140625,0.1640625 0,0.058594 0.04687,0.1054688 0.105469,0.1054688 0.09375,0 0.996094,-0.6796875 1.582031,-1.94531254 0.503906,-1.1015625 0.632813,-2.20312496 0.632813,-3.04687496 z m 0,0"
         style="fill:#000000;fill-opacity:1;fill-rule:nonzero;stroke:none" />
    </g>
    <path
       id="path34"
       d="M 0,51.02411 H 68.03217"
       style="fill:none;stroke:#ff0000;stroke-width:1.19553;stroke-linecap:butt;stroke-linejoin:miter;stroke-miterlimit:10;stroke-dasharray:none;stroke-opacity:1"
       transform="matrix(1.3333333,0,0,-1.3333333,59.550667,398.78667)" />
    <path
       id="path35"
       d="M 68.03217,-40.81917 H 204.0965"
       style="fill:none;stroke:#ff0000;stroke-width:1.19553;stroke-linecap:butt;stroke-linejoin:miter;stroke-miterlimit:10;stroke-dasharray:none;stroke-opacity:1"
       transform="matrix(1.3333333,0,0,-1.3333333,59.550667,398.78667)" />
    <path
       id="path36"
       d="M 0,-40.81917 H 68.03217"
       style="fill:none;stroke:#000000;stroke-width:0.3985;stroke-linecap:butt;stroke-linejoin:miter;stroke-miterlimit:10;stroke-dasharray:2.98883, 2.98883;stroke-dashoffset:0;stroke-opacity:1"
       transform="matrix(1.3333333,0,0,-1.3333333,59.550667,398.78667)" />
    <g
       id="g36"
       aria-label="a&#10;empuje"
       transform="matrix(1.3333333,0,0,1.3333333,17.710667,331.71467)">
      <path
         id="path37"
         d="m 3.7150469,-3.7615859 c -0.1757813,-0.375 -0.46875,-0.6445313 -0.9140625,-0.6445313 -1.171875,0 -2.40234378,1.4648438 -2.40234378,2.9179688 0,0.93749996 0.55078125,1.59374996 1.32421878,1.59374996 0.1992187,0 0.703125,-0.03515625 1.3007812,-0.73828125 0.070312,0.41015625 0.421875,0.73828125 0.9023438,0.73828125 0.3515625,0 0.5742187,-0.22265625 0.7382812,-0.5390625 0.1640625,-0.36328125 0.2929688,-0.97265626 0.2929688,-0.99609376 0,-0.09375 -0.082031,-0.09375 -0.1171875,-0.09375 -0.09375,0 -0.1054688,0.035156 -0.140625,0.1757813 -0.1640625,0.64453121 -0.3515625,1.24218746 -0.75,1.24218746 -0.2695313,0 -0.3046875,-0.2578125 -0.3046875,-0.45703125 0,-0.22265625 0.023437,-0.3046875 0.1289062,-0.73828121 0.1171875,-0.421875 0.1289063,-0.5273438 0.2226563,-0.9023438 l 0.3515625,-1.3945312 c 0.070312,-0.28125 0.070312,-0.2929688 0.070312,-0.3398438 0,-0.1640625 -0.1171875,-0.2695312 -0.28125,-0.2695312 -0.2460938,0 -0.3867188,0.2226562 -0.4218745,0.4453125 z m -0.6445313,2.578125 c -0.046875,0.1757812 -0.046875,0.19921871 -0.1992187,0.36328121 -0.4453125,0.55078125 -0.84375,0.71484375 -1.125,0.71484375 -0.5039063,0 -0.6445313,-0.55078125 -0.6445313,-0.93749996 0,-0.5039063 0.328125,-1.7226563 0.5507813,-2.1796875 0.3046875,-0.5976563 0.7617187,-0.9609375 1.1601562,-0.9609375 0.6445313,0 0.7851563,0.8203125 0.7851563,0.8789062 0,0.058594 -0.023437,0.1171875 -0.035156,0.1640625 z m 0,0"
         style="fill:#000000;fill-opacity:1;fill-rule:nonzero;stroke:none" />
      <path
         id="path38"
         d="M 8.2648516,0.73255469 C 7.8781328,1.0138047 7.4328203,1.1075547 7.1281328,1.1075547 c -0.5976562,0 -1.0664062,-0.50390626 -1.078125,-1.13671876 h 2.2851563 c 0,-0.328125 -0.035156,-0.796875 -0.3046875,-1.18359374 -0.2578125,-0.3632813 -0.6679688,-0.4921875 -1.0195313,-0.4921875 -0.84375,0 -1.5,0.74999999 -1.5,1.62890624 0,0.890625 0.6914063,1.64062496 1.6171875,1.64062496 0.3984375,0 0.8203125,-0.1171875 1.171875,-0.3398437 z M 6.0968828,-0.45103906 C 6.2492266,-1.0135391 6.6711016,-1.2479141 7.0109453,-1.2479141 c 0.3164063,0 0.7617188,0.1523438 0.9023438,0.79687504 z m 7.7578122,-0.1171875 c 0,-0.55078124 -0.152343,-1.10156254 -1.019531,-1.10156254 -0.585937,0 -0.949219,0.3398438 -1.113281,0.5625 -0.07031,-0.1875 -0.246094,-0.5625 -0.9375,-0.5625 -0.398438,0 -0.7851564,0.1640625 -1.0898439,0.5273438 v -0.5039063 h -0.5625 v 3.140625 h 0.609375 v -1.69921871 c 0,-0.45703125 0.1992187,-1.00781249 0.7382809,-1.00781249 0.714844,0 0.714844,0.49218749 0.714844,0.69140624 V 1.4942734 h 0.609375 v -1.69921871 c 0,-0.45703125 0.1875,-1.00781249 0.726563,-1.00781249 0.714843,0 0.714843,0.49218749 0.714843,0.69140624 V 1.4942734 h 0.609375 z m 1.78418,1.73437496 c 0.375,0.3398438 0.773437,0.3984375 1.007812,0.3984375 0.738282,0 1.371094,-0.70312496 1.371094,-1.62890621 0,-0.83203125 -0.46875,-1.60546879 -1.160156,-1.60546879 -0.304688,0 -0.832031,0.09375 -1.230469,0.3984375 v -0.328125 h -0.585937 v 4.4414063 h 0.597656 z m 0,-1.99218746 c 0.164062,-0.18750004 0.433594,-0.36328124 0.773437,-0.36328124 0.550782,0 0.996094,0.51562499 0.996094,1.12499999 0,0.69140625 -0.527344,1.17187501 -1.066406,1.17187501 -0.105469,0 -0.28125,-0.023437 -0.457031,-0.16406251 -0.210938,-0.1640625 -0.246094,-0.26953125 -0.246094,-0.3984375 z m 5.876953,-0.77343754 h -0.609375 v 2.01562504 c 0,0.5625 -0.480469,0.73828126 -0.878906,0.73828126 -0.515625,0 -0.574219,-0.140625 -0.574219,-0.45703126 V -1.5994766 h -0.609375 v 2.33203129 c 0,0.62109371 0.28125,0.83203121 0.761719,0.83203121 0.292969,0 0.902344,-0.058594 1.324219,-0.3867187 v 0.3164062 h 0.585937 z m 1.962891,-1.6875 h -0.703125 v 0.703125 h 0.703125 z m -1.839844,5.9648438 c 0.328125,0.1757812 0.632812,0.234375 0.902344,0.234375 0.480468,0 0.9375,-0.3632813 0.9375,-1.0078125 v -3.5039063 h -0.585938 v 3.5507813 c 0,0.1289062 0,0.2460937 -0.152344,0.3632812 -0.152343,0.1171875 -0.351562,0.1171875 -0.410156,0.1171875 -0.292969,0 -0.480469,-0.140625 -0.5625,-0.2109375 z M 27.067586,0.73255469 C 26.680867,1.0138047 26.235555,1.1075547 25.930867,1.1075547 c -0.597656,0 -1.066406,-0.50390626 -1.078125,-1.13671876 h 2.285156 c 0,-0.328125 -0.03516,-0.796875 -0.304687,-1.18359374 -0.257813,-0.3632813 -0.667969,-0.4921875 -1.019531,-0.4921875 -0.84375,0 -1.5,0.74999999 -1.5,1.62890624 0,0.890625 0.691406,1.64062496 1.617187,1.64062496 0.398438,0 0.820313,-0.1171875 1.171875,-0.3398437 z m -2.167969,-1.18359375 c 0.152344,-0.56250004 0.574219,-0.79687504 0.914063,-0.79687504 0.316406,0 0.761718,0.1523438 0.902343,0.79687504 z m 0,0"
         style="fill:#000000;fill-opacity:1;fill-rule:nonzero;stroke:none" />
    </g>
    <g
       id="g38"
       aria-label="−g"
       transform="matrix(1.3333333,0,0,1.3333333,37.714667,455.79467)">
      <path
         id="path39"
         d="m 6.5626328,-2.2981484 c 0.1757813,0 0.3515625,0 0.3515625,-0.1992188 0,-0.1992187 -0.1757812,-0.1992187 -0.3515625,-0.1992187 h -5.390625 c -0.1640625,0 -0.33984374,0 -0.33984374,0.1992187 0,0.1992188 0.17578124,0.1992188 0.33984374,0.1992188 z m 0,0"
         style="fill:#000000;fill-opacity:1;fill-rule:nonzero;stroke:none" />
      <path
         id="path40"
         d="m 12.436656,-3.7512734 c 0.01172,-0.070312 0.03516,-0.1171875 0.03516,-0.1875 0,-0.1640625 -0.117187,-0.2695313 -0.292968,-0.2695313 -0.09375,0 -0.363282,0.070312 -0.410157,0.4335938 -0.175781,-0.375 -0.527343,-0.6328125 -0.925781,-0.6328125 -1.1367185,0 -2.3671873,1.3945312 -2.3671873,2.8359375 0,0.98437496 0.609375,1.57031246 1.3242188,1.57031246 0.5859375,0 1.0546875,-0.46875 1.1601565,-0.57421875 l 0.01172,0.0117188 c -0.210937,0.87890625 -0.328125,1.2890625 -0.328125,1.3125 -0.04687,0.0820313 -0.386718,1.07812499 -1.4414058,1.07812499 -0.1875,0 -0.515625,-0.011719 -0.796875,-0.1054688 0.3046875,-0.09375 0.4101563,-0.3515625 0.4101563,-0.515625 0,-0.1640625 -0.1054688,-0.35156244 -0.375,-0.35156244 -0.2226563,0 -0.5390625,0.17578124 -0.5390625,0.57421874 0,0.4101562 0.3632812,0.609375 1.3242187,0.609375 1.2421873,0 1.9570313,-0.7734375 2.1093753,-1.37109374 z m -1.289062,2.4726562 c -0.05859,0.2578125 -0.292969,0.51562501 -0.503907,0.70312501 -0.210937,0.17578125 -0.527343,0.3515625 -0.8085933,0.3515625 -0.5039062,0 -0.65625,-0.515625 -0.65625,-0.91406251 0,-0.4804687 0.2929688,-1.6523437 0.5625,-2.15625 0.2695313,-0.4921875 0.7031253,-0.890625 1.1132813,-0.890625 0.65625,0 0.796875,0.8085938 0.796875,0.8554688 0,0.046875 -0.01172,0.1054687 -0.02344,0.1523437 z m 0,0"
         style="fill:#000000;fill-opacity:1;fill-rule:nonzero;stroke:none" />
    </g>
    <g
       id="g40"
       aria-label="t&#10;1"
       transform="matrix(1.3333333,0,0,1.3333333,154.952,392.10133)">
      <path
         id="path41"
         d="m 2.051625,-3.9842031 h 0.9375 c 0.1992188,0 0.3046875,0 0.3046875,-0.1992188 0,-0.1054687 -0.1054687,-0.1054687 -0.28125,-0.1054687 H 2.1336563 c 0.3632812,-1.4179688 0.4101562,-1.6171875 0.4101562,-1.6757813 0,-0.1757812 -0.1171875,-0.2695312 -0.2929687,-0.2695312 -0.023437,0 -0.3046875,0.011719 -0.3984375,0.3515625 l -0.3867188,1.59375 h -0.9375 c -0.19921875,0 -0.29296875,0 -0.29296875,0.1875 0,0.1171875 0.0703125,0.1171875 0.26953125,0.1171875 h 0.8789063 c -0.7148438,2.8242187 -0.75000005,2.99999998 -0.75000005,3.17578123 0,0.5390625 0.37500005,0.9140625 0.91406255,0.9140625 1.0078125,0 1.5820312,-1.45312503 1.5820312,-1.53515623 0,-0.09375 -0.082031,-0.09375 -0.1171875,-0.09375 -0.09375,0 -0.1054687,0.023437 -0.1523437,0.140625 -0.4335938,1.03124998 -0.9609375,1.27734373 -1.3007813,1.27734373 -0.1992187,0 -0.3046875,-0.12890625 -0.3046875,-0.45703125 0,-0.24609375 0.023437,-0.31640625 0.058594,-0.48046878 z m 0,0"
         style="fill:#000000;fill-opacity:1;fill-rule:nonzero;stroke:none" />
      <path
         id="path42"
         d="m 5.9305313,-2.935375 c 0,-0.1875 -0.011719,-0.1992187 -0.2109375,-0.1992187 -0.4453125,0.4335937 -1.078125,0.4453125 -1.359375,0.4453125 v 0.2460937 c 0.1640625,0 0.6210937,0 1.0078125,-0.1875 v 3.55078125 c 0,0.23437505 0,0.32812505 -0.6914063,0.32812505 H 4.4070938 V 1.4943125 C 4.536,1.4825938 5.3914688,1.470875 5.6492813,1.470875 c 0.2109375,0 1.0898437,0.011719 1.2421875,0.023437 V 1.2482188 H 6.6336563 c -0.703125,0 -0.703125,-0.09375 -0.703125,-0.32812505 z m 0,0"
         style="fill:#000000;fill-opacity:1;fill-rule:nonzero;stroke:none" />
    </g>
    <g
       id="g42"
       aria-label="t&#10;2"
       transform="matrix(1.3333333,0,0,1.3333333,326.29867,392.10133)">
      <path
         id="path43"
         d="m 2.0494375,-3.9842031 h 0.9375 c 0.1992187,0 0.3046875,0 0.3046875,-0.1992188 0,-0.1054687 -0.1054688,-0.1054687 -0.28125,-0.1054687 H 2.1314687 C 2.49475,-5.7068594 2.541625,-5.9060781 2.541625,-5.9646719 c 0,-0.1757812 -0.1171875,-0.2695312 -0.2929688,-0.2695312 -0.023437,0 -0.3046875,0.011719 -0.3984375,0.3515625 L 1.4635,-4.2888906 H 0.526 c -0.19921875,0 -0.29296875,0 -0.29296875,0.1875 0,0.1171875 0.0703125,0.1171875 0.26953125,0.1171875 h 0.8789062 c -0.7148437,2.8242187 -0.74999995,2.99999998 -0.74999995,3.17578123 0,0.5390625 0.37499995,0.9140625 0.91406245,0.9140625 1.0078125,0 1.5820313,-1.45312503 1.5820313,-1.53515623 0,-0.09375 -0.082031,-0.09375 -0.1171875,-0.09375 -0.09375,0 -0.1054688,0.023437 -0.1523438,0.140625 -0.4335937,1.03124998 -0.9609375,1.27734373 -1.3007812,1.27734373 -0.1992188,0 -0.3046875,-0.12890625 -0.3046875,-0.45703125 0,-0.24609375 0.023437,-0.31640625 0.058594,-0.48046878 z m 0,0"
         style="fill:#000000;fill-opacity:1;fill-rule:nonzero;stroke:none" />
      <path
         id="path44"
         d="M 7.1119375,0.2286875 H 6.8775625 C 6.854125,0.38103125 6.7955312,0.7911875 6.7017812,0.8615 6.6431875,0.89665625 6.104125,0.89665625 6.010375,0.89665625 H 4.7213125 c 0.7382812,-0.64453125 0.984375,-0.84375 1.3945312,-1.171875 0.515625,-0.41015625 0.9960938,-0.84374995 0.9960938,-1.49999995 0,-0.84375 -0.7382813,-1.359375 -1.6289063,-1.359375 -0.8671875,0 -1.453125,0.609375 -1.453125,1.2421875 0,0.3632812 0.3046875,0.3984375 0.375,0.3984375 0.1640625,0 0.375,-0.1171875 0.375,-0.375 0,-0.1289063 -0.058594,-0.3632813 -0.421875,-0.3632813 0.2226563,-0.5039062 0.6914063,-0.65625 1.0195313,-0.65625 0.703125,0 1.0664062,0.5507813 1.0664062,1.1132813 0,0.609375 -0.4335937,1.0898437 -0.65625,1.33593745 l -1.6875,1.66406255 c -0.070312,0.058594 -0.070312,0.070312 -0.070312,0.2695312 h 2.8828125 z m 0,0"
         style="fill:#000000;fill-opacity:1;fill-rule:nonzero;stroke:none" />
    </g>
    <path
       id="path45"
       d="M 68.03217,-40.81917 V 153.07236"
       style="fill:none;stroke:#a6a6a6;stroke-width:0.3985;stroke-linecap:butt;stroke-linejoin:miter;stroke-miterlimit:10;stroke-dasharray:2.98883, 2.98883;stroke-dashoffset:0;stroke-opacity:1"
       transform="matrix(1.3333333,0,0,-1.3333333,59.550667,398.78667)" />
    <path
       id="path46"
       d="M 204.0965,-40.81917 V 153.07236"
       style="fill:none;stroke:#a6a6a6;stroke-width:0.3985;stroke-linecap:butt;stroke-linejoin:miter;stroke-miterlimit:10;stroke-dasharray:2.98883, 2.98883;stroke-dashoffset:0;stroke-opacity:1"
       transform="matrix(1.3333333,0,0,-1.3333333,59.550667,398.78667)" />
  </g>
</svg>
